<svg width="25" height="25" viewBox="0 0 25 25" fill="none" xmlns="http://www.w3.org/2000/svg">
<path fill-rule="evenodd" clip-rule="evenodd" d="M10.2264 5.53583C9.89208 5.53583 9.57985 5.70293 9.39438 5.98113L8.58185 7.19993C8.02545 8.03452 7.08876 8.53583 6.0857 8.53583H5.15607C4.60378 8.53583 4.15607 8.98354 4.15607 9.53583V18.5358C4.15607 19.0881 4.60378 19.5358 5.15607 19.5358H19.1561C19.7084 19.5358 20.1561 19.0881 20.1561 18.5358V9.53583C20.1561 8.98354 19.7084 8.53583 19.1561 8.53583H18.2264C17.2234 8.53583 16.2867 8.03452 15.7303 7.19993L14.9177 5.98113C14.7323 5.70293 14.4201 5.53583 14.0857 5.53583H10.2264ZM7.73028 4.87173C8.28668 4.03713 9.22338 3.53583 10.2264 3.53583H14.0857C15.0888 3.53583 16.0255 4.03713 16.5819 4.87173L17.3944 6.09053C17.5799 6.36873 17.8921 6.53583 18.2264 6.53583H19.1561C20.8129 6.53583 22.1561 7.87897 22.1561 9.53583V18.5358C22.1561 20.1927 20.8129 21.5358 19.1561 21.5358H5.15607C3.49921 21.5358 2.15607 20.1927 2.15607 18.5358V9.53583C2.15607 7.87897 3.49921 6.53583 5.15607 6.53583H6.0857C6.42005 6.53583 6.73228 6.36873 6.91775 6.09053L7.73028 4.87173ZM12.1561 11.5358C11.0515 11.5358 10.1561 12.4313 10.1561 13.5358C10.1561 14.6404 11.0515 15.5358 12.1561 15.5358C13.2606 15.5358 14.1561 14.6404 14.1561 13.5358C14.1561 12.4313 13.2606 11.5358 12.1561 11.5358ZM8.15607 13.5358C8.15607 11.3267 9.94693 9.53583 12.1561 9.53583C14.3652 9.53583 16.1561 11.3267 16.1561 13.5358C16.1561 15.745 14.3652 17.5358 12.1561 17.5358C9.94693 17.5358 8.15607 15.745 8.15607 13.5358Z" fill="#111827"/>
</svg>
