<svg width="323" height="386" viewBox="0 0 323 386" fill="none" xmlns="http://www.w3.org/2000/svg">
<circle cx="45.5" cy="340.5" r="45.5" fill="#EB7129"/>
<circle cx="278.409" cy="309.5" r="24.875" fill="#EB7129"/>
<circle cx="186.109" cy="365.5" r="9.5" fill="#EB7129"/>
<circle cx="295.5" cy="27.5" r="27.5" fill="#EB7129"/>
<g opacity="0.5">
<path d="M45.5 333.667V355.875M45.5 333.667C45.5 333.667 45.5 331.117 45.5 330.25C45.5 328.363 47.0297 326.833 48.9167 326.833C50.8036 326.833 52.3333 328.363 52.3333 330.25C52.3333 332.137 50.8036 333.667 48.9167 333.667C47.8962 333.667 45.5 333.667 45.5 333.667ZM45.5 333.667C45.5 333.667 45.5 330.357 45.5 329.396C45.5 327.037 43.5879 325.125 41.2292 325.125C38.8704 325.125 36.9583 327.037 36.9583 329.396C36.9583 331.755 38.8704 333.667 41.2292 333.667C42.6262 333.667 45.5 333.667 45.5 333.667ZM33.5417 340.5H57.4583M33.5417 340.5C31.6547 340.5 30.125 338.97 30.125 337.083C30.125 335.196 31.6547 333.667 33.5417 333.667H57.4583C59.3453 333.667 60.875 335.196 60.875 337.083C60.875 338.97 59.3453 340.5 57.4583 340.5M33.5417 340.5L33.5417 352.458C33.5417 354.345 35.0714 355.875 36.9583 355.875H54.0417C55.9286 355.875 57.4583 354.345 57.4583 352.458V340.5" stroke="black" stroke-width="2" stroke-linecap="round" stroke-linejoin="round"/>
</g>
<g opacity="0.5">
<path d="M277.458 298.927C277.757 298.005 279.06 298.005 279.36 298.927L281.215 304.637C281.349 305.049 281.733 305.328 282.167 305.328L288.171 305.328C289.139 305.328 289.542 306.568 288.759 307.137L283.901 310.667C283.551 310.921 283.404 311.373 283.538 311.785L285.393 317.495C285.692 318.416 284.638 319.182 283.854 318.613L278.997 315.084C278.646 314.829 278.172 314.829 277.821 315.084L272.963 318.613C272.18 319.182 271.125 318.416 271.425 317.495L273.28 311.785C273.414 311.373 273.267 310.921 272.916 310.667L268.059 307.137C267.275 306.568 267.678 305.328 268.647 305.328L274.651 305.328C275.084 305.328 275.468 305.049 275.602 304.637L277.458 298.927Z" stroke="black" stroke-width="2"/>
</g>
<g clip-path="url(#clip0_872:90128)">
<path d="M71.0634 60.2795H34.4277V82.4133H71.0634V60.2795Z" fill="#81C6A3"/>
<path d="M106.514 246.794V241.009H99.0166V80.5939H97.2188V69.1732H87.3763V66.9014H75.8935V77.5169H84.588V85.8603H88.8268V243.538H90.4621V254.122H103.593V256.581H185.801V246.794H106.514Z" fill="#81C6A3"/>
<path d="M220.998 119.172C219.442 113.605 206.808 109.264 191.451 109.264C187.38 109.264 183.501 109.57 179.968 110.122V80.5939H159.007V118.154H162.32C162.141 118.488 162.001 118.828 161.904 119.172H154.789C156.118 116.496 156.883 113.393 156.883 110.08C156.883 100.011 149.851 91.8473 141.177 91.8473C132.502 91.8473 125.471 100.011 125.471 110.08C125.471 110.444 125.482 110.804 125.5 111.161C123.724 109.964 121.581 109.264 119.273 109.264C113.526 109.264 108.798 113.605 108.216 119.172H103.594V141.92H229.047V119.172H220.998Z" fill="#EB7129"/>
<path d="M134.109 265.575C142.536 265.575 149.367 258.776 149.367 250.388C149.367 242 142.536 235.201 134.109 235.201C125.683 235.201 118.851 242 118.851 250.388C118.851 258.776 125.683 265.575 134.109 265.575Z" fill="#30A03D"/>
<path d="M201.913 265.575C210.339 265.575 217.171 258.776 217.171 250.388C217.171 242 210.339 235.201 201.913 235.201C193.486 235.201 186.655 242 186.655 250.388C186.655 258.776 193.486 265.575 201.913 265.575Z" fill="#30A03D"/>
<path d="M235.134 218.119H103.594V135.999H241.21V198.646L235.134 218.119Z" fill="#30A03D"/>
<path d="M201.922 260.872C207.54 260.872 212.094 256.339 212.094 250.747C212.094 248.883 210.576 247.372 208.703 247.372C206.831 247.372 205.313 248.883 205.313 250.747C205.313 252.611 203.795 254.122 201.922 254.122C200.05 254.122 198.532 255.633 198.532 257.497C198.531 259.361 200.049 260.872 201.922 260.872Z" fill="black"/>
<path d="M134.109 260.872C139.727 260.872 144.281 256.339 144.281 250.747C144.281 248.883 142.763 247.372 140.891 247.372C139.018 247.372 137.5 248.883 137.5 250.747C137.5 252.611 135.982 254.122 134.11 254.122C132.237 254.122 130.719 255.633 130.719 257.497C130.719 259.361 132.237 260.872 134.109 260.872Z" fill="black"/>
<path d="M57.108 69.4784C55.7968 70.8093 55.7968 72.94 57.108 74.2709C58.4265 75.5942 60.5736 75.6033 61.9031 74.2905C62.5498 73.6519 62.9114 72.7814 62.9059 71.8747C62.9168 70.0107 61.4077 68.4911 59.5351 68.4802C58.6245 68.4751 57.7496 68.8347 57.108 69.4784Z" fill="black"/>
<path d="M242.609 129.249H232.203C230.427 114.538 217.006 104.047 202.227 105.816C199.189 106.179 196.235 107.055 193.492 108.406C190.813 107.092 187.932 106.231 184.968 105.858V85.3745C184.968 79.7826 180.414 75.2495 174.796 75.2495H164.625C159.007 75.2495 154.453 79.7826 154.453 85.3745V94.1021L150.069 89.7384C149.433 89.1056 148.571 88.7497 147.672 88.7497H134.109C133.21 88.75 132.348 89.1056 131.712 89.7384L121.54 99.8634C120.904 100.496 120.547 101.354 120.547 102.249V105.857C113.985 106.685 107.955 109.874 103.594 114.824V85.3745C103.579 72.3329 92.9614 61.7646 79.8593 61.7497H75.8447C74.4131 57.7192 70.5917 55.0178 66.2968 55H39.1718C33.5539 55 28.9998 59.5331 28.9998 65.1249V78.6247C28.9998 84.2166 33.5539 88.7497 39.1718 88.7497H66.2968C70.5921 88.7319 74.4131 86.0305 75.8447 81.9996H79.8593C81.7319 81.9996 83.2498 83.5105 83.2498 85.3745V237.247C83.2648 250.289 93.8822 260.857 106.984 260.872H116.515C122.109 270.543 134.52 273.869 144.236 268.301C147.339 266.523 149.914 263.96 151.7 260.872H184.328C189.946 270.557 202.388 273.876 212.118 268.284C221.848 262.692 225.182 250.307 219.564 240.622C213.946 230.937 201.504 227.619 191.774 233.21C188.682 234.988 186.113 237.544 184.328 240.622H151.7C146.106 230.951 133.695 227.625 123.979 233.193C120.876 234.971 118.302 237.534 116.515 240.622H106.984C105.112 240.622 103.594 239.111 103.594 237.247V223.748H222.266C235.368 223.733 245.985 213.164 246 200.123V132.624C246 130.76 244.482 129.249 242.609 129.249ZM200.206 113.029C207.55 111.114 215.353 113.47 220.39 119.124H218.874C217.002 119.124 215.484 120.635 215.484 122.499C215.484 124.363 217.002 125.874 218.874 125.874H224.482C224.878 126.971 225.175 128.1 225.371 129.249H208.486C208.441 128.894 208.363 128.55 208.306 128.199C208.238 127.784 208.18 127.369 208.092 126.964C208.072 126.869 208.041 126.782 208.021 126.691C207.546 124.611 206.824 122.596 205.872 120.687C205.814 120.572 205.76 120.45 205.699 120.349C205.414 119.792 205.102 119.255 204.78 118.722C204.681 118.561 204.587 118.385 204.485 118.24C204.168 117.743 203.837 117.26 203.491 116.792C203.353 116.6 203.213 116.414 203.071 116.232C202.732 115.79 202.393 115.358 202.013 114.939C201.84 114.74 201.657 114.548 201.477 114.352C201.111 113.958 200.745 113.573 200.359 113.201C200.304 113.137 200.257 113.079 200.206 113.029ZM161.573 129.04C161.758 128.008 162.023 126.993 162.367 126.002C162.428 125.837 162.489 125.665 162.554 125.506C162.914 124.536 163.35 123.597 163.859 122.695C163.927 122.573 164.005 122.462 164.073 122.357C164.616 121.431 165.231 120.549 165.914 119.718L165.955 119.674C166.648 118.854 167.405 118.09 168.219 117.389C168.304 117.315 168.382 117.234 168.47 117.16C169.266 116.499 170.111 115.897 170.996 115.361L171.437 115.094C172.325 114.583 173.251 114.141 174.207 113.771C174.37 113.707 174.546 113.647 174.709 113.586C175.703 113.227 176.723 112.946 177.76 112.745C177.896 112.718 178.032 112.705 178.167 112.681C179.294 112.484 180.435 112.382 181.578 112.374C185.153 112.375 188.663 113.321 191.75 115.115C192.049 115.287 192.316 115.499 192.605 115.685C193.203 116.067 193.781 116.479 194.337 116.92C194.676 117.193 194.992 117.484 195.307 117.774C195.771 118.199 196.212 118.648 196.636 119.124H188.36C186.487 119.124 184.969 120.635 184.969 122.499C184.969 124.363 186.487 125.873 188.36 125.873H200.702C200.773 126.073 200.844 126.275 200.908 126.478C201.13 127.165 201.314 127.863 201.461 128.57C201.508 128.796 201.559 129.022 201.597 129.245H161.539C161.553 129.181 161.573 129.107 161.573 129.04ZM161.234 85.3745C161.234 83.5105 162.752 81.9996 164.625 81.9996H174.797C176.669 81.9996 178.187 83.5105 178.187 85.3745V88.7493H174.797C172.924 88.7493 171.406 90.2602 171.406 92.1242C171.406 93.9881 172.924 95.499 174.797 95.499H178.187V105.833C177.763 105.887 177.35 105.978 176.933 106.049C176.594 106.106 176.255 106.153 175.916 106.224C175.353 106.343 174.804 106.494 174.254 106.65C173.976 106.727 173.688 106.788 173.41 106.876C172.698 107.102 172.003 107.362 171.318 107.639C171.216 107.682 171.108 107.713 171.006 107.757C170.219 108.088 169.455 108.454 168.714 108.857C168.49 108.979 168.28 109.117 168.059 109.245C167.547 109.539 167.042 109.836 166.547 110.16C166.279 110.336 166.032 110.534 165.774 110.717C165.35 111.021 164.923 111.324 164.52 111.652C164.252 111.868 163.998 112.097 163.74 112.327C163.367 112.664 162.994 112.978 162.638 113.339C162.384 113.589 162.143 113.848 161.896 114.105C161.648 114.361 161.438 114.561 161.218 114.8V85.3745H161.234ZM135.513 95.4994H146.268L154.453 103.646V129.249H127.328V122.499H140.89C142.763 122.499 144.281 120.988 144.281 119.124C144.281 117.26 142.763 115.749 140.89 115.749H127.328V108.999H134.109C135.982 108.999 137.5 107.488 137.5 105.624C137.5 103.76 135.982 102.249 134.109 102.249H128.732L135.513 95.4994ZM120.547 112.654V124.466L116.163 120.102C114.816 118.807 112.669 118.845 111.368 120.185C110.099 121.493 110.099 123.567 111.368 124.875L115.752 129.248H103.885C105.342 120.761 112.02 114.11 120.547 112.654ZM66.2968 81.9996H39.1718C37.2992 81.9996 35.7812 80.4887 35.7812 78.6247V75.2499H49.3438C51.2164 75.2499 52.7343 73.739 52.7343 71.875C52.7343 70.0111 51.2164 68.5002 49.3438 68.5002H35.7812V65.1253C35.7812 63.2613 37.2992 61.7504 39.1718 61.7504H66.2968C68.1694 61.7504 69.6873 63.2613 69.6873 65.1253V78.6251C69.6873 80.4887 68.1694 81.9996 66.2968 81.9996ZM201.922 237.247C209.436 237.224 215.547 243.269 215.571 250.749C215.595 258.229 209.522 264.311 202.007 264.335C194.492 264.358 188.382 258.314 188.358 250.834C188.352 248.945 188.743 247.077 189.505 245.347C191.661 240.432 196.534 237.253 201.922 237.247ZM154.165 247.372H181.863C181.863 247.466 181.863 247.564 181.839 247.659C181.491 249.703 181.491 251.791 181.839 253.835C181.839 253.929 181.839 254.027 181.863 254.122H154.165C154.182 254.028 154.165 253.93 154.192 253.835C154.54 251.791 154.54 249.703 154.192 247.659C154.175 247.564 154.182 247.467 154.165 247.372ZM134.109 237.247C141.6 237.24 147.678 243.278 147.686 250.733C147.693 258.189 141.627 264.239 134.137 264.247C128.739 264.252 123.852 261.071 121.693 256.147C120.163 252.708 120.163 248.786 121.693 245.347C123.848 240.432 128.721 237.253 134.109 237.247ZM106.984 247.372H114.05C114.05 247.466 114.05 247.564 114.027 247.659C113.679 249.703 113.679 251.791 114.027 253.835C114.027 253.929 114.027 254.027 114.05 254.122H106.984C97.626 254.111 90.0422 246.562 90.0313 237.247V85.3745C90.0313 79.7826 85.4771 75.2495 79.8593 75.2495H76.4688V68.4998H79.8593C89.2176 68.511 96.8014 76.0594 96.8123 85.3745V237.247C96.8123 242.839 101.366 247.372 106.984 247.372ZM239.219 200.123C239.207 209.438 231.624 216.986 222.266 216.998H103.594V135.999H239.219V200.123Z" fill="black"/>
<path d="M123.937 156.249C118.32 156.249 113.765 160.782 113.765 166.374V186.623C113.765 192.215 118.32 196.748 123.937 196.748C129.555 196.748 134.109 192.215 134.109 186.623V166.374C134.109 160.781 129.555 156.249 123.937 156.249ZM127.328 186.623C127.328 188.487 125.81 189.998 123.937 189.998C122.065 189.998 120.547 188.487 120.547 186.623V166.373C120.547 164.509 122.065 162.998 123.937 162.998C125.81 162.998 127.328 164.509 127.328 166.373V186.623Z" fill="black"/>
<path d="M154.453 149.499C148.835 149.499 144.281 154.032 144.281 159.624V193.373C144.281 198.965 148.835 203.498 154.453 203.498C160.071 203.498 164.625 198.965 164.625 193.373V159.624C164.625 154.032 160.071 149.499 154.453 149.499ZM157.844 193.373C157.844 195.237 156.326 196.748 154.453 196.748C152.581 196.748 151.063 195.237 151.063 193.373V159.624C151.063 157.76 152.581 156.249 154.453 156.249C156.326 156.249 157.844 157.76 157.844 159.624V193.373Z" fill="black"/>
<path d="M188.359 149.499C182.741 149.499 178.187 154.032 178.187 159.624V193.373C178.187 198.965 182.741 203.498 188.359 203.498C193.977 203.498 198.531 198.965 198.531 193.373V159.624C198.531 154.032 193.977 149.499 188.359 149.499ZM191.75 193.373C191.75 195.237 190.232 196.748 188.359 196.748C186.487 196.748 184.969 195.237 184.969 193.373V159.624C184.969 157.76 186.487 156.249 188.359 156.249C190.232 156.249 191.75 157.76 191.75 159.624V193.373Z" fill="black"/>
<path d="M218.875 156.249C213.257 156.249 208.703 160.782 208.703 166.374V186.623C208.703 192.215 213.257 196.748 218.875 196.748C224.493 196.748 229.047 192.215 229.047 186.623V166.374C229.047 160.781 224.493 156.249 218.875 156.249ZM222.265 186.623C222.265 188.487 220.747 189.998 218.875 189.998C217.002 189.998 215.484 188.487 215.484 186.623V166.373C215.484 164.509 217.002 162.998 218.875 162.998C220.747 162.998 222.265 164.509 222.265 166.373V186.623Z" fill="black"/>
<path d="M144.281 108.999C145.18 108.993 146.042 108.642 146.689 108.021C148.044 106.697 148.066 104.531 146.736 103.181C145.407 101.832 143.23 101.81 141.875 103.134C140.519 104.457 140.497 106.624 141.827 107.973C142.473 108.629 143.358 108.999 144.281 108.999Z" fill="black"/>
<path d="M172.389 120.103C171.071 121.426 171.08 123.563 172.409 124.876C173.739 126.188 175.885 126.179 177.204 124.856C178.515 123.54 178.515 121.418 177.204 120.103C175.841 118.862 173.752 118.862 172.389 120.103Z" fill="black"/>
</g>
<defs>
<clipPath id="clip0_872:90128">
<rect width="217" height="216" fill="white" transform="translate(29 55)"/>
</clipPath>
</defs>
</svg>
