<svg width="332" height="392" viewBox="0 0 332 392" fill="none" xmlns="http://www.w3.org/2000/svg">
<circle cx="54.5" cy="346.5" r="45.5" fill="#EB7129"/>
<circle cx="287.409" cy="315.5" r="24.875" fill="#EB7129"/>
<circle cx="195.109" cy="371.5" r="9.5" fill="#EB7129"/>
<g opacity="0.5">
<path d="M54.5 339.667V361.875M54.5 339.667C54.5 339.667 54.5 337.117 54.5 336.25C54.5 334.363 56.0297 332.833 57.9167 332.833C59.8036 332.833 61.3333 334.363 61.3333 336.25C61.3333 338.137 59.8036 339.667 57.9167 339.667C56.8962 339.667 54.5 339.667 54.5 339.667ZM54.5 339.667C54.5 339.667 54.5 336.357 54.5 335.396C54.5 333.037 52.5879 331.125 50.2292 331.125C47.8704 331.125 45.9583 333.037 45.9583 335.396C45.9583 337.755 47.8704 339.667 50.2292 339.667C51.6262 339.667 54.5 339.667 54.5 339.667ZM42.5417 346.5H66.4583M42.5417 346.5C40.6547 346.5 39.125 344.97 39.125 343.083C39.125 341.196 40.6547 339.667 42.5417 339.667H66.4583C68.3453 339.667 69.875 341.196 69.875 343.083C69.875 344.97 68.3453 346.5 66.4583 346.5M42.5417 346.5L42.5417 358.458C42.5417 360.345 44.0714 361.875 45.9583 361.875H63.0417C64.9286 361.875 66.4583 360.345 66.4583 358.458V346.5" stroke="black" stroke-width="2" stroke-linecap="round" stroke-linejoin="round"/>
</g>
<g opacity="0.5">
<path d="M286.458 304.927C286.757 304.005 288.06 304.005 288.36 304.927L290.215 310.637C290.349 311.049 290.733 311.328 291.167 311.328L297.171 311.328C298.139 311.328 298.542 312.568 297.759 313.137L292.901 316.667C292.551 316.921 292.404 317.373 292.538 317.785L294.393 323.495C294.692 324.416 293.638 325.182 292.854 324.613L287.997 321.084C287.646 320.829 287.172 320.829 286.821 321.084L281.963 324.613C281.18 325.182 280.125 324.416 280.425 323.495L282.28 317.785C282.414 317.373 282.267 316.921 281.916 316.667L277.059 313.137C276.275 312.568 276.678 311.328 277.647 311.328L283.651 311.328C284.084 311.328 284.468 311.049 284.602 310.637L286.458 304.927Z" stroke="black" stroke-width="2"/>
</g>
<circle cx="16.6403" cy="16.8598" r="16.6403" fill="#EB7129"/>
<g clip-path="url(#clip0_872:90129)">
<path d="M92.9816 169L109.881 129.736L238.043 90.4719L252.258 138.388L92.9816 169Z" fill="#81C6A3"/>
<path d="M124.726 138.388V140.121L81.9255 193.464L124.726 245.805V248.541H194.155V138.388H124.726Z" fill="#EB7129"/>
<path d="M271.824 138.388H195.316V248.541H271.824V138.388Z" fill="#30A03D"/>
<path d="M160.737 155.417C162.59 155.398 164.078 153.878 164.059 152.021C164.041 150.165 162.523 148.674 160.67 148.693C158.816 148.712 157.329 150.232 157.347 152.088C157.356 152.968 157.709 153.81 158.33 154.432C158.98 155.052 159.839 155.403 160.737 155.417Z" fill="black"/>
<path d="M228.539 179.188C228.539 173.561 223.985 169 218.368 169C212.751 169 208.198 173.561 208.198 179.188C208.198 184.814 212.751 189.375 218.368 189.375C223.985 189.375 228.539 184.814 228.539 179.188ZM214.978 179.188C214.978 177.312 216.496 175.792 218.368 175.792C220.241 175.792 221.758 177.312 221.758 179.188C221.758 181.063 220.241 182.583 218.368 182.583C216.496 182.583 214.978 181.063 214.978 179.188Z" fill="black"/>
<path d="M245.489 196.167C239.872 196.167 235.319 200.728 235.319 206.354C235.319 211.981 239.872 216.542 245.489 216.542C251.106 216.542 255.659 211.981 255.659 206.354C255.659 200.728 251.106 196.167 245.489 196.167ZM245.489 209.75C243.617 209.75 242.099 208.23 242.099 206.354C242.099 204.479 243.617 202.959 245.489 202.959C247.361 202.959 248.879 204.479 248.879 206.354C248.879 208.23 247.361 209.75 245.489 209.75Z" fill="black"/>
<path d="M247.886 176.787C246.562 175.461 244.416 175.461 243.092 176.787L217.667 202.255C216.32 203.558 216.283 205.708 217.584 207.057C218.884 208.406 221.03 208.443 222.377 207.14C222.405 207.113 222.433 207.085 222.46 207.057L247.886 181.588C249.209 180.262 249.209 178.113 247.886 176.787Z" fill="black"/>
<path d="M265.83 135.041H254.839C253.734 129.815 250.913 118.918 244.723 95.0487C243.524 90.596 239.492 87.5018 234.888 87.5C233.943 87.5051 233.003 87.6398 232.095 87.9009L170.52 108.062L114.855 123.004C109.831 124.588 105.665 128.149 103.312 132.868C85.5276 173.191 80.9746 183.996 79.8017 187.266L79.7507 187.368C77.6936 191.531 78.1816 196.503 81.0085 200.184L84.9918 205.091C78.1991 208.25 70.1358 205.295 66.9823 198.49C63.8289 191.686 66.7789 183.609 73.5717 180.45C75.389 179.605 77.3706 179.174 79.3742 179.188C81.2465 179.188 82.7642 177.668 82.7642 175.792C82.7642 173.917 81.2465 172.396 79.3742 172.396C68.1406 172.377 59.0189 181.484 58.9999 192.737C58.981 203.99 68.0725 213.127 79.3064 213.146C82.8356 213.152 86.3054 212.238 89.3754 210.494L116.54 243.973C120.029 247.919 124.969 250.275 130.226 250.5H265.83C271.447 250.5 276 245.939 276 240.312V145.229C276 139.603 271.447 135.041 265.83 135.041ZM109.512 135.622C111.042 132.788 113.572 130.627 116.608 129.561L172.45 114.568L234.024 94.4036C235.823 93.9202 237.675 94.9819 238.17 96.7807C241.421 109.369 246.014 127.177 247.981 135.041H130.226C124.969 135.265 120.029 137.62 116.54 141.565L95.5657 167.421C100.054 157.165 105.288 145.199 109.512 135.622ZM130.226 243.709C127.017 243.465 124.014 242.032 121.805 239.688L94.6301 206.198C97.9049 202.494 99.7138 197.718 99.7153 192.771C99.7153 190.895 98.1976 189.375 96.3253 189.375C94.4529 189.375 92.9353 190.895 92.9353 192.771C92.9276 195.666 91.9872 198.482 90.2538 200.799L86.2806 195.902C84.9485 194.029 84.9485 191.516 86.2806 189.644L121.805 145.837C124.017 143.5 127.02 142.072 130.226 141.834H193.96L188.434 150.137C187.674 151.278 187.674 152.765 188.434 153.906L193.96 162.209L188.434 170.512C187.674 171.653 187.674 173.14 188.434 174.281L193.96 182.584L188.434 190.887C187.674 192.028 187.674 193.515 188.434 194.656L193.96 202.959L188.434 211.262C187.674 212.404 187.674 213.891 188.434 215.031L193.96 223.334L188.434 231.637C187.674 232.779 187.674 234.266 188.434 235.407L193.96 243.71H130.226V243.709ZM269.22 240.312C269.22 242.188 267.702 243.708 265.83 243.708H201.418C201.417 243.037 201.219 242.382 200.848 241.824L195.315 233.521L200.841 225.218C201.601 224.076 201.601 222.589 200.841 221.448L195.315 213.145L200.841 204.842C201.601 203.701 201.601 202.214 200.841 201.073L195.315 192.77L200.841 184.467C201.601 183.326 201.601 181.839 200.841 180.698L195.315 172.395L200.841 164.092C201.601 162.951 201.601 161.464 200.841 160.323L195.315 152.02L200.841 143.717C201.214 143.159 201.414 142.504 201.417 141.832H265.83C267.702 141.832 269.22 143.352 269.22 145.228V240.312Z" fill="black"/>
<path d="M259.049 148.625H235.319C233.446 148.625 231.929 150.145 231.929 152.021C231.929 153.896 233.446 155.417 235.319 155.417H255.659V158.812C255.659 160.688 257.177 162.208 259.049 162.208C260.921 162.208 262.439 160.688 262.439 158.812V152.021C262.44 150.145 260.922 148.625 259.049 148.625Z" fill="black"/>
<path d="M164.127 230.125H131.517L115.906 210.884C114.721 209.429 112.582 209.211 111.13 210.399C109.677 211.586 109.46 213.728 110.645 215.183L126.836 235.131C127.042 235.383 127.282 235.603 127.551 235.786C128.19 236.213 128.887 236.547 129.62 236.778C129.933 236.869 130.259 236.916 130.586 236.917H164.127C166 236.917 167.517 235.396 167.517 233.521C167.517 231.645 165.999 230.125 164.127 230.125Z" fill="black"/>
<path d="M133.616 155.417H147.176C149.049 155.417 150.566 153.896 150.566 152.021C150.566 150.145 149.049 148.625 147.176 148.625H133.616C131.744 148.625 130.226 150.145 130.226 152.021C130.226 153.896 131.744 155.417 133.616 155.417Z" fill="black"/>
<path d="M221.759 155.417C223.612 155.398 225.1 153.878 225.081 152.021C225.063 150.165 223.545 148.674 221.692 148.693C219.838 148.712 218.35 150.232 218.369 152.088C218.378 152.968 218.731 153.81 219.352 154.432C220.002 155.052 220.861 155.403 221.759 155.417Z" fill="black"/>
<path d="M140.396 175.792V206.354C140.396 208.23 141.914 209.75 143.786 209.75C145.659 209.75 147.176 208.23 147.176 206.354V175.792C147.176 173.916 145.659 172.396 143.786 172.396C141.914 172.396 140.396 173.916 140.396 175.792Z" fill="black"/>
<path d="M133.616 185.979C135.488 185.979 137.006 184.459 137.006 182.583V175.792C137.006 173.916 135.488 172.396 133.616 172.396C131.744 172.396 130.226 173.916 130.226 175.792V182.583C130.226 184.459 131.744 185.979 133.616 185.979Z" fill="black"/>
<path d="M150.566 196.167C150.566 198.042 152.084 199.562 153.956 199.562C155.829 199.562 157.346 198.042 157.346 196.167V175.792C157.346 173.916 155.829 172.396 153.956 172.396C152.084 172.396 150.566 173.916 150.566 175.792V196.167Z" fill="black"/>
<path d="M151.55 203.943C150.231 205.275 150.24 207.425 151.569 208.746C152.899 210.066 155.045 210.057 156.364 208.726C157.674 207.402 157.674 205.267 156.364 203.943C155.005 202.683 152.908 202.683 151.55 203.943Z" fill="black"/>
<path d="M133.616 196.167C134.513 196.153 135.373 195.802 136.023 195.182C137.334 193.843 137.334 191.699 136.023 190.36C134.657 189.121 132.576 189.121 131.209 190.36C129.898 191.699 129.898 193.843 131.209 195.182C131.859 195.802 132.718 196.154 133.616 196.167Z" fill="black"/>
<path d="M164.127 172.396C162.254 172.396 160.737 173.916 160.737 175.791V206.354C160.737 208.229 162.254 209.75 164.127 209.75C165.999 209.75 167.517 208.229 167.517 206.354V175.791C167.517 173.916 165.999 172.396 164.127 172.396Z" fill="black"/>
<path d="M174.297 172.396C172.425 172.396 170.907 173.916 170.907 175.791V185.979C170.907 187.855 172.425 189.375 174.297 189.375C176.169 189.375 177.687 187.855 177.687 185.979V175.791C177.687 173.916 176.169 172.396 174.297 172.396Z" fill="black"/>
<path d="M174.297 192.771C172.425 192.771 170.907 194.291 170.907 196.167V206.354C170.907 208.23 172.425 209.75 174.297 209.75C176.169 209.75 177.687 208.23 177.687 206.354V196.167C177.687 194.291 176.169 192.771 174.297 192.771Z" fill="black"/>
<path d="M133.616 209.75C135.488 209.75 137.006 208.23 137.006 206.354V202.958C137.006 201.083 135.488 199.563 133.616 199.563C131.744 199.563 130.226 201.083 130.226 202.958V206.354C130.226 208.23 131.744 209.75 133.616 209.75Z" fill="black"/>
</g>
<circle cx="304.5" cy="33.5" r="27.5" fill="#EB7129"/>
<defs>
<clipPath id="clip0_872:90129">
<rect width="217" height="163" fill="white" transform="translate(59 87.5)"/>
</clipPath>
</defs>
</svg>
