<svg width="332" height="392" viewBox="0 0 332 392" fill="none" xmlns="http://www.w3.org/2000/svg">
<circle cx="54.5" cy="346.5" r="45.5" fill="#EB7129"/>
<g opacity="0.5">
<path d="M54.5 339.667V361.875M54.5 339.667C54.5 339.667 54.5 337.117 54.5 336.25C54.5 334.363 56.0297 332.833 57.9167 332.833C59.8036 332.833 61.3333 334.363 61.3333 336.25C61.3333 338.137 59.8036 339.667 57.9167 339.667C56.8962 339.667 54.5 339.667 54.5 339.667ZM54.5 339.667C54.5 339.667 54.5 336.357 54.5 335.396C54.5 333.037 52.5879 331.125 50.2292 331.125C47.8704 331.125 45.9583 333.037 45.9583 335.396C45.9583 337.755 47.8704 339.667 50.2292 339.667C51.6262 339.667 54.5 339.667 54.5 339.667ZM42.5417 346.5H66.4583M42.5417 346.5C40.6547 346.5 39.125 344.97 39.125 343.083C39.125 341.196 40.6547 339.667 42.5417 339.667H66.4583C68.3453 339.667 69.875 341.196 69.875 343.083C69.875 344.97 68.3453 346.5 66.4583 346.5M42.5417 346.5L42.5417 358.458C42.5417 360.345 44.0714 361.875 45.9583 361.875H63.0417C64.9286 361.875 66.4583 360.345 66.4583 358.458V346.5" stroke="black" stroke-width="2" stroke-linecap="round" stroke-linejoin="round"/>
</g>
<circle cx="287.409" cy="315.5" r="24.875" fill="#EB7129"/>
<circle cx="195.109" cy="371.5" r="9.5" fill="#EB7129"/>
<circle cx="16.6403" cy="16.8598" r="16.6403" fill="#EB7129"/>
<g opacity="0.5">
<path d="M286.458 304.927C286.757 304.005 288.061 304.005 288.36 304.927L290.216 310.637C290.349 311.049 290.733 311.328 291.167 311.328L297.171 311.328C298.14 311.328 298.542 312.568 297.759 313.137L292.901 316.667C292.551 316.921 292.404 317.373 292.538 317.785L294.393 323.495C294.692 324.416 293.638 325.182 292.854 324.613L287.997 321.084C287.646 320.829 287.172 320.829 286.821 321.084L281.963 324.613C281.18 325.182 280.125 324.416 280.425 323.495L282.28 317.785C282.414 317.373 282.267 316.921 281.917 316.667L277.059 313.137C276.275 312.568 276.678 311.328 277.647 311.328L283.651 311.328C284.084 311.328 284.468 311.049 284.602 310.637L286.458 304.927Z" stroke="black" stroke-width="2"/>
</g>
<circle cx="304.5" cy="33.5" r="27.5" fill="#EB7129"/>
<g clip-path="url(#clip0_872:90127)">
<path d="M258.304 144.778H76.4087V246.456H258.304V144.778Z" fill="#EB7129"/>
<path d="M110.195 160.674H93.8385V170.254H110.195V160.674Z" fill="#81C6A3"/>
<path d="M143.078 160.95H126.722V170.53H143.078V160.95Z" fill="#81C6A3"/>
<path d="M175.678 160.95H159.322V170.53H175.678V160.95Z" fill="#81C6A3"/>
<path d="M208.278 160.674H191.922V170.254H208.278V160.674Z" fill="#81C6A3"/>
<path d="M240.878 160.95H224.522V170.53H240.878V160.95Z" fill="#81C6A3"/>
<path d="M123.28 206.577H93.8385V229.37H123.28V206.577Z" fill="#81C6A3"/>
<path d="M240.878 206.577H211.482V229.37H240.878V206.577Z" fill="#81C6A3"/>
<path d="M187.06 217.9H149.917V246.456H187.06V217.9Z" fill="#81C6A3"/>
<path d="M191.922 205.77H143.022V215.35H191.922V205.77Z" fill="#30A03D"/>
<path d="M221.184 91.5099H113.934V115.343H221.184V91.5099Z" fill="#30A03D"/>
<path d="M267.171 128.478H68.9247V146.408H267.171V128.478Z" fill="#30A03D"/>
<path d="M262.04 126.62H206.62V120.1H216.4C221.801 120.1 226.18 115.721 226.18 110.32V97.2801C226.18 91.8787 221.801 87.5 216.4 87.5H118.6C113.199 87.5 108.82 91.8787 108.82 97.2801V110.32C108.82 115.721 113.199 120.1 118.6 120.1H128.38V126.62H72.9602C67.5588 126.62 63.1801 130.999 63.1801 136.4V139.66C63.1801 145.061 67.5588 149.44 72.9602 149.44V247.24C72.9602 249.041 74.4196 250.5 76.2201 250.5H258.78C260.58 250.5 262.04 249.041 262.04 247.24V149.44C267.441 149.44 271.82 145.061 271.82 139.66V136.4C271.82 130.999 267.441 126.62 262.04 126.62ZM200.1 126.62H193.58V120.1H200.1V126.62ZM147.94 126.62V120.1H187.06V126.62H147.94V126.62ZM115.34 110.32V97.2801C115.34 95.4796 116.799 94.0202 118.6 94.0202H216.4C218.201 94.0202 219.66 95.4796 219.66 97.2801V110.32C219.66 112.121 218.201 113.58 216.4 113.58H118.6C116.799 113.58 115.34 112.121 115.34 110.32ZM134.9 120.1H141.42V126.62H134.9V120.1ZM187.06 214.64C185.26 214.64 183.8 213.181 183.8 211.38V208.12H190.32V211.38C190.32 213.18 188.86 214.64 187.06 214.64ZM177.28 211.38C177.28 213.181 175.821 214.64 174.02 214.64C172.22 214.64 170.76 213.181 170.76 211.38V208.12H177.28V211.38H177.28ZM164.24 211.38C164.24 213.181 162.781 214.64 160.98 214.64C159.18 214.64 157.72 213.181 157.72 211.38V208.12H164.24V211.38H164.24ZM151.2 211.38C151.2 213.181 149.741 214.64 147.94 214.64C146.14 214.64 144.68 213.181 144.68 211.38V208.12H151.2V211.38ZM170.76 243.98V237.46C170.76 235.659 169.3 234.2 167.5 234.2C165.7 234.2 164.24 235.659 164.24 237.46V243.98H151.2V220.602C151.291 220.567 151.373 220.511 151.464 220.479C151.77 220.358 152.054 220.211 152.344 220.065C152.634 219.918 152.895 219.788 153.159 219.621C153.425 219.446 153.682 219.256 153.928 219.054C154.101 218.917 154.297 218.81 154.46 218.663C154.649 218.833 154.867 218.966 155.069 219.12C155.271 219.273 155.47 219.446 155.688 219.583C155.997 219.771 156.314 219.944 156.64 220.101C156.862 220.209 157.071 220.336 157.292 220.427C157.673 220.573 158.063 220.694 158.459 220.789C158.662 220.844 158.857 220.922 159.069 220.965C160.323 221.221 161.616 221.221 162.87 220.965C163.082 220.922 163.278 220.844 163.48 220.789C163.876 220.694 164.266 220.573 164.647 220.427C164.878 220.332 165.087 220.205 165.299 220.101C165.625 219.944 165.942 219.771 166.251 219.583C166.469 219.442 166.664 219.276 166.87 219.12C167.075 218.963 167.29 218.833 167.479 218.663C167.668 218.833 167.887 218.966 168.089 219.12C168.291 219.273 168.49 219.446 168.708 219.583C169.017 219.771 169.334 219.944 169.66 220.101C169.882 220.209 170.09 220.336 170.312 220.427C170.693 220.573 171.082 220.694 171.479 220.789C171.681 220.844 171.877 220.922 172.089 220.965C173.343 221.221 174.636 221.221 175.89 220.965C176.102 220.922 176.297 220.844 176.499 220.789C176.896 220.694 177.286 220.573 177.666 220.427C177.898 220.332 178.107 220.205 178.318 220.101C178.644 219.944 178.962 219.771 179.27 219.583C179.489 219.442 179.684 219.276 179.889 219.12C180.095 218.963 180.31 218.833 180.499 218.663C180.662 218.81 180.858 218.917 181.03 219.054C181.277 219.257 181.534 219.446 181.8 219.621C182.064 219.788 182.341 219.925 182.615 220.065C182.888 220.205 183.188 220.358 183.491 220.479C183.586 220.511 183.667 220.567 183.759 220.602V243.98H170.76ZM255.52 243.98H190.32V220.56C194.214 219.183 196.823 215.51 196.84 211.38V204.86C196.84 203.06 195.38 201.6 193.58 201.6H141.42C139.62 201.6 138.16 203.06 138.16 204.86V211.38C138.172 215.511 140.783 219.187 144.68 220.557V243.98H79.48V149.44H255.52V243.98ZM265.3 139.66C265.3 141.46 263.841 142.92 262.04 142.92H72.9602C71.1597 142.92 69.7003 141.46 69.7003 139.66V136.4C69.7003 134.6 71.1597 133.14 72.9602 133.14H262.04C263.841 133.14 265.3 134.6 265.3 136.4V139.66Z" fill="black"/>
<path d="M92.52 175.52H112.08C113.88 175.52 115.34 174.061 115.34 172.26V159.22C115.34 157.42 113.88 155.96 112.08 155.96H92.52C90.7195 155.96 89.2601 157.42 89.2601 159.22V172.26C89.2601 174.06 90.7195 175.52 92.52 175.52ZM95.7803 162.48H108.82V169H95.7803V162.48Z" fill="black"/>
<path d="M125.12 175.52H144.68C146.481 175.52 147.94 174.061 147.94 172.26V159.22C147.94 157.42 146.481 155.96 144.68 155.96H125.12C123.32 155.96 121.86 157.42 121.86 159.22V172.26C121.86 174.06 123.32 175.52 125.12 175.52ZM128.38 162.48H141.42V169H128.38V162.48Z" fill="black"/>
<path d="M190.32 175.52H209.88C211.68 175.52 213.14 174.061 213.14 172.26V159.22C213.14 157.42 211.68 155.96 209.88 155.96H190.32C188.52 155.96 187.06 157.42 187.06 159.22V172.26C187.06 174.06 188.52 175.52 190.32 175.52ZM193.58 162.48H206.62V169H193.58V162.48Z" fill="black"/>
<path d="M222.92 175.52H242.48C244.28 175.52 245.74 174.061 245.74 172.26V159.22C245.74 157.42 244.28 155.96 242.48 155.96H222.92C221.119 155.96 219.66 157.42 219.66 159.22V172.26C219.66 174.06 221.119 175.52 222.92 175.52ZM226.18 162.48H239.22V169H226.18V162.48Z" fill="black"/>
<path d="M157.72 175.52H177.28C179.08 175.52 180.54 174.061 180.54 172.26V159.22C180.54 157.42 179.08 155.96 177.28 155.96H157.72C155.919 155.96 154.46 157.42 154.46 159.22V172.26C154.46 174.06 155.919 175.52 157.72 175.52ZM160.98 162.48H174.02V169H160.98V162.48Z" fill="black"/>
<path d="M165.185 225.365C163.918 226.644 163.926 228.708 165.204 229.976C166.483 231.243 168.547 231.235 169.815 229.957C171.075 228.686 171.075 226.636 169.815 225.365C168.504 224.167 166.496 224.167 165.185 225.365Z" fill="black"/>
<path d="M242.48 201.6H209.88C208.079 201.6 206.62 203.059 206.62 204.86V230.94C206.62 232.74 208.079 234.2 209.88 234.2H242.48C244.28 234.2 245.74 232.74 245.74 230.94V204.86C245.74 203.059 244.28 201.6 242.48 201.6ZM239.22 227.68H213.14V217.9H219.66C221.461 217.9 222.92 216.44 222.92 214.64C222.92 212.84 221.461 211.38 219.66 211.38H213.14V208.12H239.22V227.68Z" fill="black"/>
<path d="M92.52 234.2H125.12C126.92 234.2 128.38 232.74 128.38 230.94V204.86C128.38 203.059 126.92 201.6 125.12 201.6H92.52C90.7195 201.6 89.2601 203.059 89.2601 204.86V230.94C89.2601 232.74 90.7195 234.2 92.52 234.2ZM121.86 208.12V227.68H95.7803V217.9H102.3C104.101 217.9 105.56 216.44 105.56 214.64C105.56 212.84 104.101 211.38 102.3 211.38H95.7803V208.12H121.86V208.12Z" fill="black"/>
<path d="M115.34 217.9C116.204 217.894 117.033 217.555 117.655 216.955C118.933 215.676 118.933 213.604 117.655 212.325C116.376 211.047 114.304 211.047 113.025 212.325C111.747 213.593 111.738 215.658 113.006 216.936C113.623 217.558 114.464 217.905 115.34 217.9Z" fill="black"/>
<path d="M232.7 217.9C234.482 217.918 235.942 216.488 235.96 214.705C235.96 214.684 235.96 214.662 235.96 214.64C235.954 213.776 235.615 212.947 235.015 212.325C233.736 211.058 231.672 211.066 230.404 212.344C229.136 213.622 229.145 215.687 230.423 216.955C231.029 217.556 231.846 217.895 232.7 217.9Z" fill="black"/>
<path d="M92.52 191.82H141.42C143.221 191.82 144.68 190.36 144.68 188.56C144.68 186.76 143.221 185.3 141.42 185.3H92.52C90.7195 185.3 89.2601 186.76 89.2601 188.56C89.2601 190.36 90.7195 191.82 92.52 191.82Z" fill="black"/>
<path d="M190.32 191.82H242.48C244.28 191.82 245.74 190.36 245.74 188.56C245.74 186.76 244.28 185.3 242.48 185.3H190.32C188.52 185.3 187.06 186.76 187.06 188.56C187.06 190.36 188.52 191.82 190.32 191.82Z" fill="black"/>
<path d="M177.28 185.3H167.5C165.7 185.3 164.24 186.76 164.24 188.56C164.24 190.36 165.7 191.82 167.5 191.82H177.28C179.081 191.82 180.54 190.36 180.54 188.56C180.54 186.76 179.081 185.3 177.28 185.3Z" fill="black"/>
<path d="M154.46 191.82C156.242 191.838 157.702 190.408 157.72 188.626C157.72 188.604 157.72 188.582 157.72 188.56C157.72 186.76 156.26 185.3 154.46 185.3C152.66 185.3 151.2 186.76 151.2 188.56C151.2 190.36 152.66 191.82 154.46 191.82Z" fill="black"/>
</g>
<defs>
<clipPath id="clip0_872:90127">
<rect width="208.64" height="163" fill="white" transform="translate(63.1801 87.5)"/>
</clipPath>
</defs>
</svg>
