<svg width="29" height="30" viewBox="0 0 29 30" fill="none" xmlns="http://www.w3.org/2000/svg">
<path fill-rule="evenodd" clip-rule="evenodd" d="M12.9377 24.3126C12.4659 24.7845 11.7008 24.7845 11.2289 24.3126L2.77057 15.8543C2.54397 15.6276 2.41666 15.3203 2.41666 14.9998C2.41666 14.6794 2.54397 14.372 2.77057 14.1454L11.2289 5.68708C11.7008 5.2152 12.4659 5.2152 12.9378 5.68708C13.4096 6.15897 13.4096 6.92404 12.9378 7.39592L6.54217 13.7915L25.375 13.7915C26.0423 13.7915 26.5833 14.3325 26.5833 14.9998C26.5833 15.6672 26.0423 16.2082 25.375 16.2082L6.54217 16.2082L12.9377 22.6037C13.4096 23.0756 13.4096 23.8407 12.9377 24.3126Z" fill="#3E8549"/>
</svg>
