<svg width="23" height="23" viewBox="0 0 23 23" fill="none" xmlns="http://www.w3.org/2000/svg">
<path fill-rule="evenodd" clip-rule="evenodd" d="M11.318 2.51758C6.27839 2.51758 2.19299 6.60298 2.19299 11.6426C2.19299 16.6822 6.27839 20.7676 11.318 20.7676C16.3576 20.7676 20.443 16.6822 20.443 11.6426C20.443 6.60298 16.3576 2.51758 11.318 2.51758ZM0.192993 11.6426C0.192993 5.49841 5.17383 0.517578 11.318 0.517578C17.4622 0.517578 22.443 5.49841 22.443 11.6426C22.443 17.7867 17.4622 22.7676 11.318 22.7676C5.17383 22.7676 0.192993 17.7867 0.192993 11.6426ZM11.318 6.14258C11.8703 6.14258 12.318 6.59029 12.318 7.14258V11.6426C12.318 12.1949 11.8703 12.6426 11.318 12.6426C10.7657 12.6426 10.318 12.1949 10.318 11.6426V7.14258C10.318 6.59029 10.7657 6.14258 11.318 6.14258ZM10.318 16.1426C10.318 15.5903 10.7657 15.1426 11.318 15.1426H11.3292C11.8815 15.1426 12.3292 15.5903 12.3292 16.1426C12.3292 16.6949 11.8815 17.1426 11.3292 17.1426H11.318C10.7657 17.1426 10.318 16.6949 10.318 16.1426Z" fill="#757575"/>
</svg>
