<svg width="27" height="28" viewBox="0 0 27 28" fill="none" xmlns="http://www.w3.org/2000/svg">
<path fill-rule="evenodd" clip-rule="evenodd" d="M10.2631 6.03496C10.4114 4.37752 11.804 3.07837 13.5 3.07837C15.196 3.07837 16.5886 4.37752 16.7369 6.03496C19.3997 7.26067 21.25 9.95233 21.25 13.0784V16.6316C21.25 16.9726 21.3855 17.2996 21.6266 17.5407L23.2071 19.1213C23.4931 19.4073 23.5787 19.8374 23.4239 20.2111C23.2691 20.5847 22.9045 20.8284 22.5 20.8284H17.875V20.9534C17.875 23.3696 15.9162 25.3284 13.5 25.3284C11.0838 25.3284 9.125 23.3696 9.125 20.9534V20.8284H4.5C4.09554 20.8284 3.7309 20.5847 3.57612 20.2111C3.42134 19.8374 3.50689 19.4073 3.79289 19.1213L5.37344 17.5407C5.61455 17.2996 5.75 16.9726 5.75 16.6316V13.0784C5.75 9.95233 7.60033 7.26067 10.2631 6.03496ZM11.125 20.8284V20.9534C11.125 22.265 12.1883 23.3284 13.5 23.3284C14.8117 23.3284 15.875 22.265 15.875 20.9534V20.8284H11.125ZM13.5 5.07837C12.8096 5.07837 12.25 5.63801 12.25 6.32837V6.71246C12.25 7.13628 11.9828 7.51407 11.5832 7.6553C9.34861 8.44513 7.75 10.5763 7.75 13.0784V16.6316C7.75 17.4447 7.4486 18.2268 6.90767 18.8284H20.0923C19.5514 18.2268 19.25 17.4447 19.25 16.6316V13.0784C19.25 10.5763 17.6514 8.44513 15.4168 7.6553C15.0172 7.51407 14.75 7.13628 14.75 6.71246V6.32837C14.75 5.63801 14.1904 5.07837 13.5 5.07837Z" fill="#757575"/>
</svg>
