<svg width="20" height="20" viewBox="0 0 20 20" fill="none" xmlns="http://www.w3.org/2000/svg">
<path fill-rule="evenodd" clip-rule="evenodd" d="M6.88521 3.95492C7.21125 3.03247 8.09098 2.37158 9.12507 2.37158H10.7084C11.7425 2.37158 12.6222 3.03247 12.9483 3.95492H13.8751C15.1867 3.95492 16.2501 5.01824 16.2501 6.32992V15.8299C16.2501 17.1416 15.1867 18.2049 13.8751 18.2049H5.9584C4.64673 18.2049 3.5834 17.1416 3.5834 15.8299V6.32992C3.5834 5.01824 4.64673 3.95492 5.9584 3.95492H6.88521ZM6.88521 5.53825H5.9584C5.52118 5.53825 5.16674 5.89269 5.16674 6.32992V15.8299C5.16674 16.2671 5.52118 16.6216 5.9584 16.6216H13.8751C14.3123 16.6216 14.6667 16.2671 14.6667 15.8299V6.32992C14.6667 5.89269 14.3123 5.53825 13.8751 5.53825H12.9483C12.6222 6.46069 11.7425 7.12158 10.7084 7.12158H9.12507C8.09098 7.12158 7.21125 6.46069 6.88521 5.53825ZM9.12507 3.95492C8.68785 3.95492 8.3334 4.30936 8.3334 4.74658C8.3334 5.18381 8.68785 5.53825 9.12507 5.53825H10.7084C11.1456 5.53825 11.5001 5.18381 11.5001 4.74658C11.5001 4.30936 11.1456 3.95492 10.7084 3.95492H9.12507ZM6.75007 10.2882C6.75007 9.85102 7.10451 9.49658 7.54174 9.49658H7.54965C7.98688 9.49658 8.34132 9.85102 8.34132 10.2882C8.34132 10.7255 7.98688 11.0799 7.54965 11.0799H7.54174C7.10451 11.0799 6.75007 10.7255 6.75007 10.2882ZM9.12507 10.2882C9.12507 9.85102 9.47951 9.49658 9.91674 9.49658H12.2917C12.729 9.49658 13.0834 9.85102 13.0834 10.2882C13.0834 10.7255 12.729 11.0799 12.2917 11.0799H9.91674C9.47951 11.0799 9.12507 10.7255 9.12507 10.2882ZM6.75007 13.4549C6.75007 13.0177 7.10451 12.6632 7.54174 12.6632H7.54965C7.98688 12.6632 8.34132 13.0177 8.34132 13.4549C8.34132 13.8921 7.98688 14.2466 7.54965 14.2466H7.54174C7.10451 14.2466 6.75007 13.8921 6.75007 13.4549ZM9.12507 13.4549C9.12507 13.0177 9.47951 12.6632 9.91674 12.6632H12.2917C12.729 12.6632 13.0834 13.0177 13.0834 13.4549C13.0834 13.8921 12.729 14.2466 12.2917 14.2466H9.91674C9.47951 14.2466 9.12507 13.8921 9.12507 13.4549Z" fill="#111827"/>
</svg>
