<svg width="17" height="17" viewBox="0 0 17 17" fill="none" xmlns="http://www.w3.org/2000/svg">
<path fill-rule="evenodd" clip-rule="evenodd" d="M12.9304 4.09228C12.5719 3.73383 11.9907 3.73383 11.6323 4.09228L11.1471 4.57746L12.4452 5.87553L12.9304 5.39034C13.2888 5.03189 13.2888 4.45073 12.9304 4.09228ZM11.5798 6.7409L10.2817 5.44284L3.4086 12.316V13.6358H4.68492L11.5798 6.7409ZM10.7669 3.2269C11.6033 2.39051 12.9593 2.39051 13.7957 3.2269C14.6321 4.06329 14.6321 5.41934 13.7957 6.25572L5.37107 14.6804C5.25632 14.7951 5.10067 14.8596 4.93838 14.8596H2.79668C2.45873 14.8596 2.18477 14.5856 2.18477 14.2477V12.0625C2.18477 11.9002 2.24924 11.7446 2.36399 11.6298L10.7669 3.2269Z" fill="#111827"/>
</svg>
