<svg width="22" height="17" viewBox="0 0 22 17" fill="none" xmlns="http://www.w3.org/2000/svg">
<path fill-rule="evenodd" clip-rule="evenodd" d="M2.77326 8.19992C4.00898 11.6965 7.34409 14.2 11.2614 14.2C15.1788 14.2 18.5139 11.6965 19.7496 8.19998C18.5139 4.7034 15.1788 2.19995 11.2614 2.19995C7.34409 2.19995 4.00899 4.70337 2.77326 8.19992ZM0.76519 7.90026C2.16661 3.43837 6.33452 0.199951 11.2614 0.199951C16.1884 0.199951 20.3563 3.43841 21.7577 7.90034C21.819 8.09541 21.8189 8.30457 21.7577 8.49964C20.3563 12.9615 16.1883 16.2 11.2614 16.2C6.33452 16.2 2.16658 12.9615 0.765188 8.49956C0.703921 8.30449 0.703922 8.09533 0.76519 7.90026ZM11.261 6.19995C10.1564 6.19995 9.26099 7.09538 9.26099 8.19995C9.26099 9.30452 10.1564 10.2 11.261 10.2C12.3656 10.2 13.261 9.30452 13.261 8.19995C13.261 7.09538 12.3656 6.19995 11.261 6.19995ZM7.26099 8.19995C7.26099 5.99081 9.05185 4.19995 11.261 4.19995C13.4701 4.19995 15.261 5.99081 15.261 8.19995C15.261 10.4091 13.4701 12.2 11.261 12.2C9.05185 12.2 7.26099 10.4091 7.26099 8.19995Z" fill="#111827"/>
</svg>
