<svg width="23" height="23" viewBox="0 0 23 23" fill="none" xmlns="http://www.w3.org/2000/svg">
<path fill-rule="evenodd" clip-rule="evenodd" d="M10.6109 0.810471C11.0014 0.419947 11.6346 0.419947 12.0251 0.810471L22.1501 10.9355C22.5406 11.326 22.5406 11.9592 22.1501 12.3497C21.7596 12.7402 21.1264 12.7402 20.7359 12.3497L20.193 11.8068V20.6426C20.193 21.8162 19.2416 22.7676 18.068 22.7676H4.56799C3.39439 22.7676 2.44299 21.8162 2.44299 20.6426V11.8068L1.9001 12.3497C1.50958 12.7402 0.876411 12.7402 0.485886 12.3497C0.0953621 11.9592 0.0953621 11.326 0.485886 10.9355L10.6109 0.810471ZM4.44299 9.80679V20.6426C4.44299 20.7116 4.49896 20.7676 4.56799 20.7676H7.94299C8.01203 20.7676 8.06799 20.7116 8.06799 20.6426V16.1426C8.06799 14.969 9.01939 14.0176 10.193 14.0176H12.443C13.6166 14.0176 14.568 14.969 14.568 16.1426V20.6426C14.568 20.7116 14.624 20.7676 14.693 20.7676H18.068C18.137 20.7676 18.193 20.7116 18.193 20.6426V9.80679L11.318 2.93179L4.44299 9.80679ZM12.5716 20.7676C12.5692 20.7262 12.568 20.6845 12.568 20.6426V16.1426C12.568 16.0735 12.512 16.0176 12.443 16.0176H10.193C10.124 16.0176 10.068 16.0735 10.068 16.1426V20.6426C10.068 20.6845 10.0668 20.7262 10.0644 20.7676H12.5716Z" fill="#111827"/>
</svg>
