<svg width="19" height="20" viewBox="0 0 19 20" fill="none" xmlns="http://www.w3.org/2000/svg">
<path fill-rule="evenodd" clip-rule="evenodd" d="M13.4186 4.9097C11.2544 2.74554 7.7456 2.74554 5.58145 4.9097C3.41729 7.07385 3.41729 10.5826 5.58145 12.7468L8.94087 16.1062C9.24982 16.4152 9.75008 16.4153 10.0595 16.1059L13.4186 12.7468C15.5827 10.5826 15.5827 7.07385 13.4186 4.9097ZM4.46186 3.79011C7.24435 1.00763 11.7557 1.00763 14.5381 3.79011C17.3206 6.5726 17.3206 11.0839 14.5381 13.8664L11.7655 16.639C11.7406 16.6639 11.7764 16.6281 11.7515 16.653L11.179 17.2255C10.2518 18.1527 8.749 18.1535 7.82129 17.2258L4.46186 13.8664C1.67938 11.0839 1.67938 6.5726 4.46186 3.79011ZM9.5 7.24491C8.62555 7.24491 7.91667 7.9538 7.91667 8.82825C7.91667 9.7027 8.62555 10.4116 9.5 10.4116C10.3745 10.4116 11.0833 9.7027 11.0833 8.82825C11.0833 7.9538 10.3745 7.24491 9.5 7.24491ZM6.33333 8.82825C6.33333 7.07935 7.7511 5.66158 9.5 5.66158C11.2489 5.66158 12.6667 7.07935 12.6667 8.82825C12.6667 10.5771 11.2489 11.9949 9.5 11.9949C7.7511 11.9949 6.33333 10.5771 6.33333 8.82825Z" fill="#111827"/>
</svg>
