<svg width="19" height="20" viewBox="0 0 19 20" fill="none" xmlns="http://www.w3.org/2000/svg">
<path fill-rule="evenodd" clip-rule="evenodd" d="M1.58334 5.68359C1.58334 4.37192 2.64666 3.30859 3.95834 3.30859H15.0417C16.3533 3.30859 17.4167 4.37192 17.4167 5.68359V6.46298C17.4168 6.47068 17.4168 6.47839 17.4167 6.48609V13.6003C17.4167 14.9119 16.3533 15.9753 15.0417 15.9753H3.95834C2.64666 15.9753 1.58334 14.9119 1.58334 13.6003V6.48608C1.58322 6.47839 1.58322 6.47069 1.58334 6.46298V5.68359ZM3.16667 7.9545V13.6003C3.16667 14.0375 3.52111 14.3919 3.95834 14.3919H15.0417C15.4789 14.3919 15.8333 14.0375 15.8333 13.6003V7.9545L10.8174 11.2984C10.0197 11.8303 8.98035 11.8303 8.18259 11.2984L3.16667 7.9545ZM15.8333 6.05157L9.93914 9.98104C9.67322 10.1583 9.32679 10.1583 9.06086 9.98104L3.16667 6.05157V5.68359C3.16667 5.24637 3.52111 4.89193 3.95834 4.89193H15.0417C15.4789 4.89193 15.8333 5.24637 15.8333 5.68359V6.05157Z" fill="#111827"/>
</svg>
