<svg width="25" height="24" viewBox="0 0 25 24" fill="none" xmlns="http://www.w3.org/2000/svg">
<path fill-rule="evenodd" clip-rule="evenodd" d="M22.0819 12C22.0819 12.3788 21.8679 12.725 21.5291 12.8944L3.52912 21.8944C3.18408 22.067 2.77056 22.0256 2.4665 21.7882C2.16243 21.5508 2.02203 21.1597 2.10572 20.7831L4.05752 12L2.10572 3.21694C2.02204 2.84035 2.16243 2.44921 2.4665 2.2118C2.77057 1.97439 3.18408 1.93306 3.52912 2.10558L21.5291 11.1056C21.8679 11.275 22.0819 11.6212 22.0819 12ZM5.88408 13L4.51386 19.166L18.8458 12L4.51386 4.83402L5.88408 11L13.0819 11C13.6342 11 14.0819 11.4477 14.0819 12C14.0819 12.5523 13.6342 13 13.0819 13L5.88408 13Z" fill="#464646"/>
</svg>
