<svg width="20" height="20" viewBox="0 0 20 20" fill="none" xmlns="http://www.w3.org/2000/svg">
<path fill-rule="evenodd" clip-rule="evenodd" d="M2.03918 4.93994C2.03918 3.62827 3.10251 2.56494 4.41418 2.56494H7.01025C7.69176 2.56494 8.29682 3.00104 8.51233 3.64758L9.6981 7.20489C9.94727 7.9524 9.60887 8.76938 8.90411 9.12176L7.83018 9.65872C8.53208 10.8847 9.55274 11.9054 10.7787 12.6073L11.3157 11.5334C11.6681 10.8286 12.4851 10.4902 13.2326 10.7394L16.7899 11.9251C17.4364 12.1406 17.8725 12.7457 17.8725 13.4272V16.0233C17.8725 17.335 16.8092 18.3983 15.4975 18.3983H14.7059C7.71025 18.3983 2.03918 12.7272 2.03918 5.73161V4.93994ZM4.41418 4.14827C3.97696 4.14827 3.62252 4.50272 3.62252 4.93994V5.73161C3.62252 11.8528 8.5847 16.8149 14.7059 16.8149H15.4975C15.9347 16.8149 16.2892 16.4605 16.2892 16.0233V13.4272L12.7319 12.2414L11.8384 14.0284C11.6484 14.4085 11.1922 14.5707 10.8049 14.3961C8.69349 13.4441 6.99333 11.744 6.04136 9.63256C5.86672 9.24522 6.02899 8.7891 6.40902 8.59908L8.19602 7.70558L7.01025 4.14827H4.41418Z" fill="#111827"/>
</svg>
