<svg width="36" height="35" viewBox="0 0 36 35" fill="none" xmlns="http://www.w3.org/2000/svg">
<path fill-rule="evenodd" clip-rule="evenodd" d="M3.52033 10.4137C3.52033 8.10686 5.39037 6.23682 7.69718 6.23682H27.9389C30.2457 6.23682 32.1157 8.10686 32.1157 10.4137V14.7512C32.1157 15.461 31.5403 16.0364 30.8305 16.0364C29.9433 16.0364 29.224 16.7556 29.224 17.6428C29.224 18.5301 29.9433 19.2493 30.8305 19.2493C31.5403 19.2493 32.1157 19.8247 32.1157 20.5345V24.872C32.1157 27.1788 30.2457 29.0489 27.9389 29.0489H7.69718C5.39037 29.0489 3.52033 27.1788 3.52033 24.872V20.5345C3.52033 19.8247 4.09573 19.2493 4.80552 19.2493C5.69275 19.2493 6.412 18.5301 6.412 17.6428C6.412 16.7556 5.69275 16.0364 4.80552 16.0364C4.09573 16.0364 3.52033 15.461 3.52033 14.7512V10.4137ZM7.69718 8.80719C6.80995 8.80719 6.0907 9.52643 6.0907 10.4137V13.6674C7.76868 14.2095 8.98237 15.7844 8.98237 17.6428C8.98237 19.5012 7.76868 21.0762 6.0907 21.6182V24.872C6.0907 25.7592 6.80995 26.4785 7.69718 26.4785H27.9389C28.8261 26.4785 29.5453 25.7592 29.5453 24.872V21.6182C27.8674 21.0762 26.6537 19.5012 26.6537 17.6428C26.6537 15.7844 27.8674 14.2095 29.5453 13.6674V10.4137C29.5453 9.52643 28.8261 8.80719 27.9389 8.80719H7.69718Z" fill="#111827"/>
<path d="M15.5278 22.5508C15.4053 22.7582 15.2498 22.8618 15.0613 22.8618C14.9388 22.8618 14.8304 22.8194 14.7361 22.7346C14.6513 22.6498 14.6089 22.5367 14.6089 22.3953C14.6089 22.2822 14.6419 22.1738 14.7079 22.0701L20.1082 12.7256C20.2307 12.5182 20.3862 12.4146 20.5747 12.4146C20.6973 12.4146 20.8009 12.4617 20.8858 12.5559C20.98 12.6407 21.0271 12.7491 21.0271 12.8811C21.0271 12.9847 20.9988 13.0931 20.9423 13.2062L15.5278 22.5508ZM14.4251 18.6348C13.6712 18.6348 13.0821 18.3804 12.658 17.8714C12.2339 17.3531 12.0218 16.5897 12.0218 15.5812C12.0218 14.5822 12.2339 13.8283 12.658 13.3193C13.0821 12.801 13.6712 12.5418 14.4251 12.5418C15.1791 12.5418 15.7681 12.801 16.1923 13.3193C16.6164 13.8283 16.8284 14.5822 16.8284 15.5812C16.8284 16.5897 16.6164 17.3531 16.1923 17.8714C15.7681 18.3804 15.1791 18.6348 14.4251 18.6348ZM14.4251 17.8149C14.8869 17.8149 15.2262 17.6358 15.443 17.2777C15.6692 16.9196 15.7823 16.3541 15.7823 15.5812C15.7823 14.8178 15.6692 14.2571 15.443 13.8989C15.2262 13.5408 14.8869 13.3617 14.4251 13.3617C13.9633 13.3617 13.6193 13.5408 13.3931 13.8989C13.1669 14.2571 13.0538 14.8178 13.0538 15.5812C13.0538 16.3541 13.1669 16.9196 13.3931 17.2777C13.6193 17.6358 13.9633 17.8149 14.4251 17.8149ZM21.2109 22.7205C20.4569 22.7205 19.8679 22.466 19.4438 21.9571C19.0197 21.4387 18.8076 20.6753 18.8076 19.6669C18.8076 18.6678 19.0197 17.9139 19.4438 17.4049C19.8679 16.8866 20.4569 16.6274 21.2109 16.6274C21.9743 16.6274 22.5633 16.8819 22.978 17.3908C23.4021 17.8997 23.6142 18.6584 23.6142 19.6669C23.6142 20.6753 23.4021 21.4387 22.978 21.9571C22.5633 22.466 21.9743 22.7205 21.2109 22.7205ZM21.2109 21.9005C21.6821 21.9005 22.0261 21.7261 22.2429 21.3774C22.4691 21.0193 22.5822 20.4491 22.5822 19.6669C22.5822 18.9035 22.4691 18.3427 22.2429 17.9845C22.0167 17.6264 21.6727 17.4473 21.2109 17.4473C20.7491 17.4473 20.4051 17.6264 20.1789 17.9845C19.9621 18.3427 19.8537 18.9035 19.8537 19.6669C19.8537 20.4397 19.9621 21.0052 20.1789 21.3633C20.4051 21.7214 20.7491 21.9005 21.2109 21.9005Z" fill="black"/>
<path fill-rule="evenodd" clip-rule="evenodd" d="M15.7491 22.6862C15.5951 22.9468 15.3664 23.1235 15.0613 23.1235C14.8728 23.1235 14.7038 23.0559 14.5642 22.9302L14.5541 22.9212C14.4125 22.7796 14.3518 22.5963 14.3518 22.3999C14.3518 22.2356 14.4 22.0816 14.4878 21.9417L19.8869 12.5994C20.0409 12.3388 20.2696 12.1621 20.5747 12.1621C20.7684 12.1621 20.9373 12.2387 21.0677 12.3786C21.2119 12.5133 21.2841 12.6887 21.2841 12.8857C21.2841 13.0371 21.2427 13.1847 21.1722 13.3258L21.1651 13.3399L15.7491 22.6862ZM20.8857 12.5605C20.8009 12.4663 20.6972 12.4191 20.5747 12.4191C20.3862 12.4191 20.2307 12.5228 20.1082 12.7302L14.7078 22.0747C14.6419 22.1784 14.6089 22.2868 14.6089 22.3999C14.6089 22.5413 14.6513 22.6544 14.7361 22.7392C14.8304 22.824 14.9387 22.8664 15.0613 22.8664C15.2498 22.8664 15.4053 22.7627 15.5278 22.5554L20.9423 13.2108C20.9988 13.0977 21.0271 12.9893 21.0271 12.8857C21.0271 12.7537 20.98 12.6453 20.8857 12.5605ZM12.459 18.0388C11.9825 17.4563 11.7648 16.6248 11.7648 15.5858C11.7648 14.5566 11.9823 13.7338 12.4598 13.1603C12.9392 12.5749 13.6054 12.2893 14.4251 12.2893C15.2448 12.2893 15.911 12.5749 16.3904 13.1603C16.8679 13.7338 17.0854 14.5566 17.0854 15.5858C17.0854 16.6248 16.8677 17.4563 16.3912 18.0388L16.3897 18.0406C15.9097 18.6166 15.2435 18.8965 14.4251 18.8965C13.6066 18.8965 12.9405 18.6166 12.4605 18.0406L12.459 18.0388ZM16.1922 13.3239C15.7681 12.8056 15.1791 12.5464 14.4251 12.5464C13.6711 12.5464 13.0821 12.8056 12.658 13.3239C12.2339 13.8329 12.0218 14.5868 12.0218 15.5858C12.0218 16.5943 12.2339 17.3577 12.658 17.876C13.0821 18.385 13.6711 18.6394 14.4251 18.6394C15.1791 18.6394 15.7681 18.385 16.1922 17.876C16.6163 17.3577 16.8284 16.5943 16.8284 15.5858C16.8284 14.5868 16.6163 13.8329 16.1922 13.3239ZM15.2256 17.145C15.4122 16.8497 15.5252 16.3445 15.5252 15.5858C15.5252 14.8374 15.4124 14.3365 15.2256 14.0408L15.223 14.0367C15.0583 13.7645 14.8081 13.6234 14.4251 13.6234C14.042 13.6234 13.7846 13.7649 13.6104 14.0408C13.4236 14.3365 13.3108 14.8374 13.3108 15.5858C13.3108 16.3445 13.4239 16.8497 13.6104 17.145C13.7846 17.4209 14.042 17.5625 14.4251 17.5625C14.8081 17.5625 15.0584 17.4213 15.2231 17.1492L15.2256 17.145ZM19.2448 22.1244C18.7682 21.5419 18.5505 20.7104 18.5505 19.6714C18.5505 18.6422 18.7681 17.8194 19.2455 17.2459C19.7249 16.6605 20.3912 16.3749 21.2109 16.3749C22.037 16.3749 22.7047 16.6537 23.1764 17.2319C23.654 17.8058 23.8712 18.6336 23.8712 19.6714C23.8712 20.7103 23.6536 21.5417 23.1772 22.1241C22.7054 22.703 22.0374 22.9821 21.2109 22.9821C20.3924 22.9821 19.7263 22.7022 19.2463 22.1262L19.2448 22.1244ZM22.978 21.9616C23.4021 21.4433 23.6142 20.6799 23.6142 19.6714C23.6142 18.663 23.4021 17.9043 22.978 17.3954C22.5633 16.8865 21.9743 16.632 21.2109 16.632C20.4569 16.632 19.8679 16.8912 19.4437 17.4095C19.0196 17.9185 18.8076 18.6724 18.8076 19.6714C18.8076 20.6799 19.0196 21.4433 19.4437 21.9616C19.8679 22.4706 20.4569 22.725 21.2109 22.725C21.9743 22.725 22.5633 22.4706 22.978 21.9616ZM22.0246 21.2463L22.0255 21.2448C22.2119 20.9497 22.3251 20.4402 22.3251 19.6714C22.3251 18.923 22.2123 18.4221 22.0256 18.1264C21.8513 17.8505 21.594 17.709 21.2109 17.709C20.8287 17.709 20.5717 17.8498 20.3975 18.1243C20.2186 18.4215 20.1108 18.9236 20.1108 19.6714C20.1108 20.4294 20.2188 20.9359 20.3975 21.2327C20.5717 21.5072 20.8287 21.6481 21.2109 21.6481C21.6088 21.6481 21.8624 21.5073 22.0246 21.2463ZM20.1789 21.3679C19.9621 21.0098 19.8537 20.4443 19.8537 19.6714C19.8537 18.908 19.9621 18.3473 20.1789 17.9891C20.4051 17.631 20.7491 17.4519 21.2109 17.4519C21.6727 17.4519 22.0167 17.631 22.2429 17.9891C22.4691 18.3473 22.5822 18.908 22.5822 19.6714C22.5822 20.4537 22.4691 21.0239 22.2429 21.382C22.0261 21.7307 21.6821 21.9051 21.2109 21.9051C20.7491 21.9051 20.4051 21.726 20.1789 21.3679ZM15.443 17.2823C15.2262 17.6404 14.8869 17.8195 14.4251 17.8195C13.9633 17.8195 13.6193 17.6404 13.3931 17.2823C13.1669 16.9241 13.0538 16.3587 13.0538 15.5858C13.0538 14.8224 13.1669 14.2617 13.3931 13.9035C13.6193 13.5454 13.9633 13.3663 14.4251 13.3663C14.8869 13.3663 15.2262 13.5454 15.443 13.9035C15.6692 14.2617 15.7822 14.8224 15.7822 15.5858C15.7822 16.3587 15.6692 16.9241 15.443 17.2823Z" fill="black"/>
</svg>
