<svg width="19" height="19" viewBox="0 0 19 19" fill="none" xmlns="http://www.w3.org/2000/svg">
<path fill-rule="evenodd" clip-rule="evenodd" d="M9.50001 3.07879C8.13975 3.07879 7.03705 4.1815 7.03705 5.54176C7.03705 6.90201 8.13975 8.00472 9.50001 8.00472C10.8603 8.00472 11.963 6.90201 11.963 5.54176C11.963 4.1815 10.8603 3.07879 9.50001 3.07879ZM5.62964 5.54176C5.62964 3.40421 7.36246 1.67139 9.50001 1.67139C11.6376 1.67139 13.3704 3.40421 13.3704 5.54176C13.3704 7.6793 11.6376 9.41213 9.50001 9.41213C7.36246 9.41213 5.62964 7.6793 5.62964 5.54176ZM4.71285 15.9214H14.2872C13.9464 13.583 11.9329 11.7871 9.50001 11.7871C7.06709 11.7871 5.05361 13.583 4.71285 15.9214ZM3.25464 16.6251C3.25464 13.1759 6.05079 10.3797 9.50001 10.3797C12.9492 10.3797 15.7454 13.1759 15.7454 16.6251C15.7454 17.0137 15.4303 17.3288 15.0417 17.3288H3.95834C3.5697 17.3288 3.25464 17.0137 3.25464 16.6251Z" fill="#757575"/>
</svg>
