<svg width="236" height="236" viewBox="0 0 236 236" fill="none" xmlns="http://www.w3.org/2000/svg">
<path d="M28.0071 170.994L32.503 80.5508L111.641 131.419H127.186L206.061 80.5508V170.994L198.725 182.299L187.952 187.436H55.1138L37.3432 182.299L28.0071 170.994Z" fill="#30A03D"/>
<path d="M26.9003 69.245L36.487 52.6844L196.155 51.0312L204.089 63.9237L206.073 80.5504L122.946 132.353H109.544L36.487 82.7666L26.9003 69.245Z" fill="#EB7129"/>
<path d="M29.5 78.666L107.091 130.393C113.697 134.797 122.303 134.797 128.909 130.393L206.5 78.666M49.1667 186.833H186.833C197.695 186.833 206.5 178.028 206.5 167.166V68.8327C206.5 57.9711 197.695 49.166 186.833 49.166H49.1667C38.3051 49.166 29.5 57.9711 29.5 68.8327V167.166C29.5 178.028 38.3051 186.833 49.1667 186.833Z" stroke="black" stroke-width="11" stroke-linecap="round" stroke-linejoin="round"/>
<path d="M77.5463 171.06C79.5619 171.039 81.18 169.379 81.1598 167.351C81.1396 165.323 79.4894 163.695 77.4734 163.715C75.4577 163.735 73.8397 165.396 73.8599 167.424C73.8694 168.385 74.2531 169.304 74.9285 169.984C75.6357 170.661 76.5704 171.045 77.5463 171.06Z" fill="black"/>
<path d="M48.0509 171.06H62.7986C64.8349 171.06 66.4854 169.399 66.4854 167.35C66.4854 165.301 64.8349 163.641 62.7986 163.641H48.0509C46.0147 163.641 44.3641 165.301 44.3641 167.35C44.3641 169.399 46.0147 171.06 48.0509 171.06Z" fill="black"/>
</svg>
